<?xml version="1.0" standalone="no"?>
<!DOCTYPE svg PUBLIC "-//W3C//DTD SVG 20010904//EN"
 "http://www.w3.org/TR/2001/REC-SVG-20010904/DTD/svg10.dtd">
<svg version="1.0" xmlns="http://www.w3.org/2000/svg"
 width="2480.000000pt" height="1674.000000pt" viewBox="0 0 2480.000000 1674.000000"
 preserveAspectRatio="xMidYMid meet">

<g transform="translate(0.000000,1674.000000) scale(0.100000,-0.100000)"
fill="#000000" stroke="none">
<path d="M0 8370 l0 -8370 12400 0 12400 0 0 8370 0 8370 -12400 0 -12400 0 0
-8370z m5380 6114 c232 -54 496 -286 623 -546 46 -95 65 -154 78 -241 13 -89
-5 -191 -51 -284 -31 -61 -88 -123 -115 -123 -18 0 -18 -4 -1 -66 67 -228 70
-469 11 -722 -45 -188 -125 -335 -221 -404 l-46 -33 6 -75 c29 -346 218 -760
459 -1008 36 -37 121 -103 202 -157 98 -64 161 -114 207 -164 125 -135 208
-343 233 -583 4 -37 2 -201 -5 -365 -17 -408 6 -1010 55 -1437 65 -562 280
-1018 646 -1371 170 -164 331 -276 544 -380 246 -120 426 -168 640 -169 120 0
140 3 256 36 122 35 301 74 464 100 100 16 490 15 630 -1 323 -39 756 -162
1105 -316 58 -26 312 -136 565 -245 253 -109 582 -250 730 -315 535 -232 996
-407 1675 -636 312 -106 368 -120 575 -144 163 -19 273 -19 406 0 635 88 1245
86 1659 -6 455 -101 1305 -397 2160 -752 251 -104 294 -117 384 -117 55 0 86
7 136 28 91 39 251 135 324 194 77 62 225 136 293 147 116 18 234 -23 358
-124 82 -66 234 -143 355 -178 47 -14 193 -51 325 -82 179 -43 278 -73 390
-118 268 -107 439 -201 519 -287 37 -39 46 -56 46 -85 0 -38 -28 -75 -57 -76
-10 0 -232 -1 -493 -3 -455 -3 -587 -8 -1215 -42 -557 -30 -710 -33 -1261 -23
-302 5 -576 11 -609 14 -33 3 -199 14 -370 25 -552 36 -1492 115 -2435 206
-453 43 -493 45 -855 48 -209 2 -412 8 -451 14 -149 23 -468 33 -1289 42 -467
5 -929 14 -1025 20 -912 55 -1631 147 -2181 280 -314 76 -606 134 -779 155
-250 29 -685 106 -1025 181 -883 195 -1634 571 -2033 1017 -40 45 -90 108
-110 139 -20 32 -40 58 -44 58 -5 0 -8 -13 -8 -29 0 -54 -50 -374 -91 -585
-95 -493 -271 -1077 -384 -1281 -91 -162 -222 -266 -396 -315 -168 -46 -447
-48 -1209 -9 -349 18 -598 56 -628 97 -38 51 13 84 179 118 142 28 279 73 474
156 77 33 174 69 215 80 94 25 240 28 450 9 171 -15 280 -11 384 16 66 17 70
20 83 58 34 95 114 538 99 552 -3 4 -164 10 -357 14 -446 9 -493 15 -619 79
-115 58 -105 78 60 121 61 16 160 48 218 70 276 105 450 151 618 165 l82 7 6
46 c14 104 18 485 7 766 -13 353 -22 500 -57 970 l-26 350 -38 55 c-21 30 -79
127 -130 215 -80 139 -159 296 -510 1010 -152 307 -175 384 -167 535 14 230
127 456 355 705 212 231 437 694 507 1038 82 409 37 707 -135 890 -124 133
-210 153 -611 144 -280 -6 -413 2 -487 29 -63 23 -67 42 -42 190 24 143 20
161 -46 198 -31 17 -40 28 -42 55 -2 18 1 38 7 44 16 16 13 27 -7 27 -42 0
-54 44 -26 99 23 46 12 73 -56 132 -38 33 -60 60 -60 73 0 12 34 62 76 111 62
74 124 168 124 189 0 2 -20 14 -44 26 -24 11 -52 32 -61 46 -16 25 -16 25 4
15 11 -6 41 -11 67 -11 l47 0 -9 88 c-5 48 -9 146 -8 217 1 145 9 183 79 360
37 94 44 123 48 202 4 79 9 103 40 166 64 135 231 283 403 356 122 52 212 64
431 59 l193 -5 -33 23 c-18 12 -50 29 -70 38 -29 12 -37 21 -37 40 0 30 25 46
71 46 25 0 42 -10 78 -47 25 -27 51 -57 57 -68 17 -29 -2 82 -21 128 -23 56
-1 86 49 67 35 -13 56 -49 56 -95 l0 -40 48 51 c59 65 99 92 170 115 70 22
157 23 242 3z"/>
</g>
</svg>
