<?xml version="1.0" encoding="utf-8"?>
<!-- Generator: Adobe Illustrator 22.0.1, SVG Export Plug-In . SVG Version: 6.00 Build 0)  -->
<svg version="1.1" id="Layer_1" xmlns="http://www.w3.org/2000/svg" xmlns:xlink="http://www.w3.org/1999/xlink" x="0px" y="0px"
	 viewBox="0 0 855.4 800.4" style="enable-background:new 0 0 855.4 800.4;" xml:space="preserve">
<style type="text/css">
	.st0{fill:#c03426;}
</style>
<g>
	<g>
		<g>
			<g>
				<path class="st0" d="M547.2,280.7c-5.2,0-11,1.7-17.2,5.2c-21,11.6-41.4,28.2-58.8,48c-18,20.4-27.7,38.3-28,51.8
					c-1.2,52,0.9,119.6,28.5,181c9,20.1,24,43.9,44.9,43.9c14.7,0,31.4-11.8,48.4-34.1c35.1-45.9,40.7-100.6,41.6-152.9
					c-0.3-36.2-4-83.1-31-123C566.6,287.2,557.3,280.7,547.2,280.7z"/>
				<path class="st0" d="M0,0v800.4h855.4V0H0z M621.1,579c-16.5,36.5-36.1,61.3-61.6,78.2c-20.8,13.8-42.5,21.1-62.8,21.1
					c-32.9,0-60.9-18.7-78.7-53c-10-19.1-18.9-40.1-26.6-62.6c-18.1,13.8-36,25.8-53.6,35.7c-29.2,16.6-60.8,30.6-91.4,44l-12.4,5.5
					c-7.9,3.5-17.1,7.1-26.4,7.1c-10.5,0-19.3-4.7-25.2-13.6c-4.9-7.2-6.6-15.1-4.8-22.6c2.1-9.7,9.9-18.9,22.4-26.4
					c11.6-6.9,24-12.6,35.9-18.2c8.1-3.8,16.1-7.6,23.9-11.6c20.3-10.7,40.3-21.6,60.3-32.6l20.3-11.2l-14.4-4.2
					c-17.8-5.3-35.8-10.5-53.4-16c-37.7-11.6-75.2-23.3-112.5-35.4c-8.2-2.6-15.6-6.5-22.8-10.4c-21.3-11.2-31.2-22-32.7-34.6
					c-1.4-12,5.1-24.1,20.6-37.9c25.1-22.5,53.9-42.1,81.8-61.1l9-6.2c15.1-10.2,30.5-20,46.1-29.6c14.5-9.1,29-18.1,43.1-27.6
					c2.1-1.4,4.3-2.9,6.6-4.4c7.1-4.5,18.8-11.9,19.2-16.9c0.2-1.3-0.1-2.4-0.8-3.8c-1.7-1.4-14.8-4.8-30.2-4.8l-2.5,0.1
					c-28.3,1-54.4,4.1-77.5,9.3c-7.2,1.6-15.9,10.8-19.9,18.4c-7,13.4-19.5,31.2-47.6,31.2c-26.4,0-44.9-10.8-52.2-30.6
					c-8.6-23.6-9.6-39-3.5-51.5c5.6-11.5,17.4-19.7,36.8-26c67-21.6,138.7-25.4,213.1-11.3c17.2,3.3,32.4,11.1,42.3,17.1
					c17.9,10.9,28.1,24.5,29.3,39.4c0.8,9.6-1.7,23.9-18.5,38.5c-28.9,25.2-60.9,48.1-91.9,70.3l-18.3,13.1
					c-12.3,8.9-25,17.2-37.7,25.7c-14.1,9.3-28.1,18.6-41.7,28.6c-8.9,6.7-9.5,9.9-9.5,10c0,0,1.7,3,12.5,6.6
					c24.4,7.9,49.8,14.8,74.2,21.6c19.3,5.3,38.4,10.5,57.4,16.3c7.5,2.2,14.9,4.7,22.1,7.2c-4.6-32.7-7.5-66.2-10.2-98.5l-1.9-22.1
					c-0.9-10.2,1.3-39.7,15.2-44.9c10-3.6,22.7-0.8,33.9,2.3c2.1,0.6,4.2,1.2,6.3,1.7c6.8-7.6,13.6-15.6,20.5-23.6
					c18.5-21.8,37.8-44.3,59.9-63.8c35.8-31.6,76.7-26.7,109.6,13.1c35.4,43.1,44.8,94.9,48.8,130.2
					C659.2,443.2,650.4,514.6,621.1,579z M761.7,203.1c-15.7,101.5-23.5,210.8-25.1,354.5c-0.2,9.7-0.3,20.8,0.8,31.4
					c1,9.8-1,17.8-6.1,23.9c-5.5,6.5-14.3,10.1-26,10.8l-2.9,0.1c-9.4,0-17.3-2.9-22.8-8.5c-3.7-3.7-8.4-10.8-8.3-22.8l0.8-69.3
					c0.5-53.3,0.9-106.6,2.1-159.8c0.7-26.3,2.6-51.9,4.6-79.2c1-12.6,1.9-25.3,2.8-38.4c0.9-50.4,7.6-64.3,9-66.5
					c12.8-18.5,29.8-25.4,47.9-20C751.5,163.1,766.1,173.6,761.7,203.1z"/>
			</g>
		</g>
	</g>
</g>
</svg>
